HIERARCHY
ROOT Hips
{
	OFFSET 0.000000 8.830580 0.000000
	CHANNELS 6 Xposition Yposition Zposition Zrotation Yrotation Xrotation 
	JOINT Spine
	{
		OFFSET 0.000000 0.010000 0.000000
		CHANNELS 3 Zrotation Yrotation Xrotation
		JOINT Spine1
		{
			OFFSET 0.000000 2.459130 0.000000
			CHANNELS 3 Zrotation Yrotation Xrotation
			JOINT Neck
			{
				OFFSET 0.000000 2.484630 0.000000
				CHANNELS 3 Zrotation Yrotation Xrotation
				JOINT Head_virtual
				{
					OFFSET 0.000000 0.000000 0.000000
					CHANNELS 3 Zrotation Yrotation Xrotation
					JOINT Head
					{
						OFFSET 0.000000 0.927525 0.000000
						CHANNELS 3 Zrotation Yrotation Xrotation
						End Site
						{
							OFFSET 0.000000 0.000000 0.000000
						}
					}
				}
				JOINT LeftUpArm_virtual
				{
					OFFSET 0.000000 0.000000 0.000000
					CHANNELS 3 Zrotation Yrotation Xrotation
					JOINT LeftUpArm
					{
						OFFSET 1.248820 0.000000 0.000000
						CHANNELS 3 Zrotation Yrotation Xrotation
						JOINT LeftForeArm
						{
							OFFSET 2.597580 0.000000 0.000000
							CHANNELS 3 Zrotation Yrotation Xrotation
							JOINT LeftHand
							{
								OFFSET 2.455420 0.000000 0.000000
								CHANNELS 3 Zrotation Yrotation Xrotation
								End Site
								{
									OFFSET 0.000000 0.000000 0.000000
								}
							}
						}
					}
				}
				JOINT RightUpArm_virtual
				{
					OFFSET -0.000000 -0.000000 -0.000000
					CHANNELS 3 Zrotation Yrotation Xrotation
					JOINT RightUpArm
					{
						OFFSET -1.248820 -0.000000 -0.000000
						CHANNELS 3 Zrotation Yrotation Xrotation
						JOINT RightForeArm
						{
							OFFSET -2.597580 -0.000000 -0.000000
							CHANNELS 3 Zrotation Yrotation Xrotation
							JOINT RightHand
							{
								OFFSET -2.455420 -0.000000 -0.000000
								CHANNELS 3 Zrotation Yrotation Xrotation
								End Site
								{
									OFFSET 0.000000 0.000000 0.000000
								}
							}
						}
					}
				}
			}
		}
	}
	JOINT LeftUpLeg
	{
		OFFSET 1.271939 0.000000 0.000000
		CHANNELS 3 Zrotation Yrotation Xrotation
		JOINT LeftLowLeg
		{
			OFFSET 0.000000 -4.342910 0.000000
			CHANNELS 3 Zrotation Yrotation Xrotation
			JOINT LeftFoot
			{
				OFFSET 0.000000 -4.487670 0.000000
				CHANNELS 3 Zrotation Yrotation Xrotation
				JOINT LeftToeBase
				{
					OFFSET 0.000000 0.000000 1.515070
					CHANNELS 3 Zrotation Yrotation Xrotation
					End Site
					{
						OFFSET 0.000000 0.000000 0.000000
					}
				}
			}
		}
	}
	JOINT RightUpLeg
	{
		OFFSET -1.271939 0.000000 0.000000
		CHANNELS 3 Zrotation Yrotation Xrotation
		JOINT RightLowLeg
		{
			OFFSET 0.000000 -4.342910 0.000000
			CHANNELS 3 Zrotation Yrotation Xrotation
			JOINT RightFoot
			{
				OFFSET 0.000000 -4.487670 0.000000
				CHANNELS 3 Zrotation Yrotation Xrotation
				JOINT RightToeBase
				{
					OFFSET 0.000000 0.000000 1.515070
					CHANNELS 3 Zrotation Yrotation Xrotation
					End Site
					{
						OFFSET 0.000000 0.000000 0.000000
					}
				}
			}
		}
	}
}
MOTION
Frames: 16
Frame Time: 0.041667
-17.391951 9.038585 36.210500 -176.929738 -8.175066 -165.171211 4.803213 -2.366151 -24.735302 1.586272 -3.426710 7.955586 0.000000 0.000000 0.000000 23.343641 1.735030 -4.904021 -15.972214 -20.825933 -74.058097 -24.773800 -1.235720 12.834800 -47.698700 -7.554640 -172.705002 0.000000 87.271400 0.000000 4.986450 1.001270 -101.117996 28.797600 -4.172430 8.098640 37.529202 10.666600 16.521900 0.000000 81.270897 0.000000 -23.247299 7.202100 43.899300 5.471854 -20.160237 -13.028791 0.000000 0.000000 5.699320 -1.105789 20.758714 -1.351770 0.000000 0.000000 -12.229160 4.662494 18.757948 -9.711332 0.000000 0.000000 2.780790 0.699872 -28.437250 4.867029 0.000000 0.000000 -18.579010 
-17.387442 9.038113 36.215468 -176.933690 -7.979506 -164.954347 4.694364 -2.278586 -24.957682 1.569754 -3.234884 7.768104 0.000000 0.000000 0.000000 22.795098 2.070170 -4.174881 -15.854423 -21.004483 -73.647616 -24.963900 -1.247710 12.878900 -47.564999 -8.491350 -171.751999 0.000000 80.280601 0.000000 6.110030 0.013134 -114.250999 28.911501 -4.100980 8.201800 37.580101 11.750800 17.625200 0.000000 73.880997 0.000000 -22.332199 6.313980 41.990398 5.527542 -20.002229 -13.264604 0.000000 0.000000 5.728490 -1.141787 20.793804 -1.377329 0.000000 0.000000 -12.241570 4.538207 18.983940 -10.042082 0.000000 0.000000 2.879570 0.709058 -28.448455 4.843870 0.000000 0.000000 -18.596550 
-17.389246 9.037332 36.211389 -176.905290 -8.056075 -165.278287 4.731443 -2.180711 -24.933088 1.312622 -3.210353 7.882418 0.000000 0.000000 0.000000 22.433529 2.248824 -3.598511 -15.848064 -21.071384 -73.043899 -25.258900 -1.357140 12.954900 -47.389400 -9.680020 -170.753998 0.000000 72.095703 0.000000 6.470810 2.197810 -123.226997 29.226500 -3.908590 8.180280 37.647598 12.698400 18.150900 0.000000 66.226799 0.000000 -18.228600 3.940780 35.072201 5.468181 -20.248653 -12.916352 0.000000 0.000000 5.719200 -1.106595 20.974998 -1.410265 0.000000 0.000000 -12.243650 4.720744 18.695874 -9.623149 0.000000 0.000000 2.800590 0.741081 -28.227905 4.849022 0.000000 0.000000 -18.658870 
-17.376585 9.033660 36.224166 -176.899192 -7.486084 -164.749231 4.506983 -1.953218 -25.035548 1.447843 -2.792524 7.128128 0.000000 0.000000 0.000000 22.008258 2.499502 -2.693383 -15.912505 -21.272609 -72.495182 -25.992001 -1.387900 13.408100 -46.886799 -11.145900 -170.233002 0.000000 62.894001 0.000000 6.831490 5.531070 -129.505005 29.753000 -3.644670 8.565750 37.512699 14.007000 19.049999 0.000000 57.279999 0.000000 -15.303100 2.361770 26.998400 5.578038 -19.611064 -13.417906 0.000000 0.000000 5.707030 -1.349510 20.832072 -1.600131 0.000000 0.000000 -12.205250 4.406488 19.403365 -10.497618 0.000000 0.000000 3.157660 0.876410 -28.306340 4.633106 0.000000 0.000000 -18.611180 
-17.374729 9.029845 36.221778 -176.874785 -7.462907 -164.954274 4.464501 -1.892746 -25.018888 1.360518 -2.713815 7.154676 0.000000 0.000000 0.000000 21.517207 2.767165 -2.127120 -15.965570 -21.292757 -71.765933 -26.966400 -1.625860 13.785200 -46.333698 -12.670800 -170.188004 0.000000 53.031898 0.000000 7.125280 8.883940 -136.306000 30.434200 -2.990620 8.763190 37.343498 15.108300 20.006701 0.000000 47.591599 0.000000 -12.990000 1.863270 23.889900 5.545714 -19.675103 -13.165330 0.000000 0.000000 5.673620 -1.420736 20.884230 -1.746686 0.000000 0.000000 -12.170640 4.519643 19.371572 -10.253120 0.000000 0.000000 3.137390 0.941640 -28.243633 4.523024 0.000000 0.000000 -18.614040 
-17.370292 9.023454 36.217935 -176.857893 -7.358280 -164.858087 4.388371 -1.817464 -25.320836 1.348702 -2.565203 7.290125 0.000000 0.000000 0.000000 21.015955 2.972564 -1.807241 -16.097857 -21.191962 -70.840152 -28.000999 -1.953620 14.068100 -46.036900 -14.207300 -171.173004 0.000000 42.388901 0.000000 7.343280 12.952000 -135.244003 31.262899 -2.032610 9.041150 37.073700 15.706900 20.830900 0.000000 37.991001 0.000000 -9.574620 0.811260 16.117701 5.588477 -19.567590 -13.177765 0.000000 0.000000 5.602210 -1.590917 20.832887 -1.991874 0.000000 0.000000 -12.107710 4.522750 19.440522 -10.330778 0.000000 0.000000 3.137000 1.010100 -28.201521 4.324235 0.000000 0.000000 -18.576960 
-17.368808 9.015765 36.214125 -176.855025 -7.463092 -164.584458 4.328054 -1.807211 -25.932158 1.344237 -2.462702 7.759150 0.000000 0.000000 0.000000 20.468051 3.224441 -1.789322 -16.119856 -20.923563 -69.822696 -29.004801 -2.501710 14.284700 -46.186798 -15.476800 -174.737000 0.000000 32.139500 0.000000 9.482940 13.729200 -141.391998 32.024799 -1.156530 9.258650 36.916901 16.219101 21.223301 0.000000 28.752800 0.000000 -5.466030 -1.230840 11.844400 5.738995 -19.690908 -13.459765 0.000000 0.000000 5.589900 -1.671588 20.865396 -2.234078 0.000000 0.000000 -12.047750 4.485841 19.350938 -10.557374 0.000000 0.000000 3.096920 1.103001 -28.179658 4.069190 0.000000 0.000000 -18.551130 
-17.361721 9.005878 36.200362 -176.906763 -7.435258 -164.648952 4.447316 -0.437662 -26.599437 -0.879127 -1.634954 9.025585 0.000000 0.000000 0.000000 23.228484 2.337527 -2.366990 -16.947239 -18.976830 -68.704734 -28.327499 4.535680 12.868500 -44.091202 -32.812698 99.019989 0.000000 -9.992720 0.000000 32.740101 9.548630 -48.029999 33.671902 -0.433739 8.916490 37.211201 15.204300 19.599100 0.000000 20.759199 0.000000 -1.392120 -2.848630 8.872670 5.670913 -19.651774 -13.160185 0.000000 0.000000 5.348170 -1.766468 20.824593 -2.470373 0.000000 0.000000 -12.014260 4.548770 19.414536 -10.327653 0.000000 0.000000 2.983610 1.100822 -28.286044 3.771141 0.000000 0.000000 -18.493080 
-17.366283 9.023644 36.203306 -176.872450 -7.392774 -164.587270 4.758181 -1.182448 -26.087374 0.409530 -2.460440 8.897499 0.000000 0.000000 0.000000 19.912354 3.035706 -3.362323 -16.929600 -19.871295 -68.613421 -37.159599 4.878080 17.409599 -28.284000 -27.153299 47.627991 0.000000 -22.068199 0.000000 14.449900 12.622300 -4.847770 33.607201 -0.133942 8.784430 37.129200 15.595200 19.028000 0.000000 13.931100 0.000000 1.515230 -5.838840 14.909400 5.698957 -19.676243 -13.247455 0.000000 0.000000 5.338490 -1.498061 20.978666 -1.899985 0.000000 0.000000 -12.118710 4.475767 19.514250 -10.461245 0.000000 0.000000 3.004480 0.887393 -28.306045 4.393610 0.000000 0.000000 -18.620360 
-17.364369 9.016409 36.180356 -176.954769 -7.964625 -164.500334 4.181900 -1.748845 -26.370730 1.474806 -2.258632 8.506727 0.000000 0.000000 0.000000 18.900122 3.228778 -2.628758 -16.130940 -20.322880 -67.497466 -34.693100 2.527710 12.845200 -36.516399 -20.698299 45.783997 0.000000 -16.556000 0.000000 10.489400 15.303900 2.266580 32.528702 -0.173864 9.098250 38.131302 14.277300 16.968901 0.000000 9.006570 0.000000 2.737530 -8.443610 23.124399 5.822904 -20.200229 -13.250481 0.000000 0.000000 5.203890 -1.590191 20.915940 -2.068775 0.000000 0.000000 -12.066590 4.604186 19.138167 -10.174392 0.000000 0.000000 2.669450 0.761223 -28.574321 4.210172 0.000000 0.000000 -18.520840 
-17.359700 9.013749 36.170385 -176.996810 -7.938796 -164.309744 4.030244 -1.669601 -26.520838 1.358146 -2.040208 8.253099 0.000000 0.000000 0.000000 18.814874 3.384842 -2.159202 -15.825824 -20.118726 -66.684544 -33.010101 1.686670 8.991550 -40.462101 -15.124500 41.747986 0.000000 -13.614700 0.000000 9.486320 18.609501 12.503500 32.008301 -0.379544 9.286360 38.879398 12.679400 14.741600 0.000000 5.953870 0.000000 2.496680 -10.672400 30.067400 5.846055 -20.097344 -13.307191 0.000000 0.000000 5.078010 -1.652127 20.818228 -2.131091 0.000000 0.000000 -12.062440 4.548348 19.198779 -10.275466 0.000000 0.000000 2.611900 0.748566 -28.609031 4.123347 0.000000 0.000000 -18.522950 
-17.355845 9.011643 36.158078 -177.034631 -7.992847 -164.032763 4.054621 -1.402000 -26.724935 0.807700 -1.863366 7.845505 0.000000 0.000000 0.000000 18.891060 3.677187 -1.312601 -15.201472 -20.026049 -66.292361 -31.597799 0.465645 6.749880 -42.433300 -9.278530 33.856995 0.000000 -12.876500 0.000000 10.979500 20.737000 26.153500 31.536400 -0.857522 9.201640 39.716400 10.231000 13.109800 0.000000 4.701790 0.000000 1.301670 -12.607900 39.082802 5.921634 -20.056305 -13.482017 0.000000 0.000000 4.992610 -1.687757 20.729453 -2.180845 0.000000 0.000000 -12.078420 4.464839 19.306848 -10.482060 0.000000 0.000000 2.612090 0.781119 -28.729941 3.990505 0.000000 0.000000 -18.494920 
-17.353430 9.006574 36.143665 -177.041000 -8.139154 -163.581592 4.197218 -1.028146 -27.147329 -0.077147 -1.727212 7.744190 0.000000 0.000000 0.000000 19.353443 3.859063 -1.047035 -14.784903 -19.489800 -65.924357 -30.041500 -0.671414 13.474700 -43.467300 -9.494190 15.299011 0.000000 -13.025600 0.000000 12.913000 20.222500 40.171001 31.252399 -1.496880 8.442800 40.397400 7.037440 12.875000 0.000000 4.818670 0.000000 0.305525 -12.766600 43.059299 6.100804 -20.048663 -13.890045 0.000000 0.000000 4.987330 -1.701259 20.649117 -2.347913 0.000000 0.000000 -12.043880 4.433307 19.045050 -10.821502 0.000000 0.000000 2.578960 0.795887 -28.577528 3.813115 0.000000 0.000000 -18.496370 
-17.350406 9.005179 36.132683 -177.066173 -8.363411 -163.439445 4.213641 -0.888987 -27.121532 -0.487682 -1.660246 7.719180 0.000000 0.000000 0.000000 19.479140 4.088277 -1.087055 -14.479424 -19.198942 -66.001031 -29.994699 0.132502 13.051600 -42.719299 -6.952610 14.360992 0.000000 -12.963900 0.000000 12.906700 19.597900 41.319698 31.046499 -2.599260 8.043230 40.478600 4.542420 12.902200 0.000000 5.407820 0.000000 -0.055668 -12.617600 44.550598 6.217551 -20.276982 -14.087991 0.000000 0.000000 5.109190 -1.745052 20.680443 -2.452730 0.000000 0.000000 -12.037900 4.454507 18.942747 -10.916043 0.000000 0.000000 2.641780 0.862765 -28.643417 3.669021 0.000000 0.000000 -18.508010 
-17.346708 9.003328 36.119136 -177.096644 -8.391598 -163.351730 4.225994 -0.679293 -27.149764 -0.904458 -1.531561 7.836067 0.000000 0.000000 0.000000 19.401878 4.513395 -0.929213 -13.886544 -19.088425 -66.365643 -29.974300 0.834717 12.783500 -41.694500 -4.485970 13.772003 0.000000 -12.787100 0.000000 11.155400 18.081301 38.020901 30.873301 -3.804510 8.156570 40.396198 2.532050 13.499000 0.000000 6.106530 0.000000 0.062238 -11.340900 42.882999 6.257124 -20.457126 -14.139928 0.000000 0.000000 5.185050 -1.623243 20.915182 -2.501199 0.000000 0.000000 -12.078910 4.440571 19.081928 -10.945971 0.000000 0.000000 2.689940 0.861240 -28.808463 3.551743 0.000000 0.000000 -18.501270 
-17.340867 9.001007 36.106714 -177.134574 -8.576509 -163.259112 4.207132 -0.611203 -27.190775 -1.213768 -1.467694 8.037915 0.000000 0.000000 0.000000 19.281750 4.923916 -0.849865 -13.472322 -18.972340 -66.743543 -29.933800 1.416090 12.534000 -40.697601 -2.116520 13.376007 0.000000 -12.268100 0.000000 8.825160 15.480600 32.596901 30.776600 -4.556860 7.670940 40.232601 -0.302433 14.524500 0.000000 7.131910 0.000000 0.104242 -9.816250 37.536999 6.344771 -20.657323 -14.217868 0.000000 0.000000 5.208640 -1.737608 20.929570 -2.628326 0.000000 0.000000 -12.023040 4.472673 19.104761 -10.954816 0.000000 0.000000 2.689220 0.821461 -29.029121 3.448447 0.000000 0.000000 -18.493310 
